<svg width="17" height="16" viewBox="0 0 17 16" fill="none" xmlns="http://www.w3.org/2000/svg">
<path d="M14.6117 8.35375L10.1117 12.8538C10.0179 12.9476 9.89062 13.0003 9.75793 13.0003C9.62525 13.0003 9.498 12.9476 9.40418 12.8538C9.31036 12.7599 9.25766 12.6327 9.25766 12.5C9.25766 12.3673 9.31036 12.2401 9.40418 12.1463L13.0511 8.5H3.25793C3.12533 8.5 2.99815 8.44733 2.90438 8.35356C2.81061 8.25979 2.75793 8.13261 2.75793 8C2.75793 7.86739 2.81061 7.74022 2.90438 7.64645C2.99815 7.55268 3.12533 7.5 3.25793 7.5H13.0511L9.40418 3.85375C9.31036 3.75993 9.25766 3.63269 9.25766 3.5C9.25766 3.36732 9.31036 3.24007 9.40418 3.14625C9.498 3.05243 9.62525 2.99973 9.75793 2.99973C9.89062 2.99973 10.0179 3.05243 10.1117 3.14625L14.6117 7.64625C14.6582 7.69269 14.6951 7.74783 14.7202 7.80853C14.7454 7.86923 14.7583 7.9343 14.7583 8C14.7583 8.06571 14.7454 8.13077 14.7202 8.19147C14.6951 8.25217 14.6582 8.30732 14.6117 8.35375Z" fill="white"/>
</svg>
