<svg width="26" height="26" viewBox="0 0 26 26" fill="none" xmlns="http://www.w3.org/2000/svg">
<path d="M17.9368 8.62442V15.7839C17.9368 15.9331 17.8775 16.0763 17.7719 16.1818C17.6664 16.2874 17.5232 16.3467 17.3739 16.3467C17.2247 16.3467 17.0815 16.2874 16.976 16.1818C16.8704 16.0763 16.8111 15.9331 16.8111 15.7839L16.8116 9.98224L9.02124 17.7726C8.91575 17.8781 8.77268 17.9374 8.62349 17.9374C8.47431 17.9374 8.33123 17.8781 8.22574 17.7726C8.12025 17.6671 8.06099 17.5241 8.06099 17.3749C8.06099 17.2257 8.12025 17.0826 8.22574 16.9771L16.0161 9.18674L10.2145 9.18724C10.0652 9.18724 9.92206 9.12794 9.81651 9.02239C9.71096 8.91685 9.65167 8.77369 9.65167 8.62443C9.65167 8.47516 9.71096 8.332 9.81651 8.22646C9.92206 8.12091 10.0652 8.06161 10.2145 8.06161L17.3739 8.06161C17.4479 8.06157 17.5211 8.0761 17.5894 8.10437C17.6577 8.13264 17.7197 8.17409 17.772 8.22636C17.8243 8.27863 17.8657 8.34069 17.894 8.409C17.9223 8.4773 17.9368 8.5505 17.9368 8.62442Z" fill="black"/>
</svg>
