<svg width="20" height="20" viewBox="0 0 20 20" fill="none" xmlns="http://www.w3.org/2000/svg">
<path d="M18.7504 4.375V8.125C18.7504 8.29076 18.6846 8.44973 18.5674 8.56694C18.4501 8.68415 18.2912 8.75 18.1254 8.75H14.3754C14.2097 8.75 14.0507 8.68415 13.9335 8.56694C13.8163 8.44973 13.7504 8.29076 13.7504 8.125C13.7504 7.95924 13.8163 7.80027 13.9335 7.68306C14.0507 7.56585 14.2097 7.5 14.3754 7.5H16.516L14.4387 5.59687L14.4192 5.57812C13.5505 4.70976 12.4452 4.11661 11.2413 3.87277C10.0375 3.62893 8.78847 3.74522 7.65033 4.20711C6.51219 4.669 5.53538 5.456 4.84193 6.46981C4.14847 7.48362 3.76911 8.67929 3.75124 9.90745C3.73337 11.1356 4.07779 12.3418 4.74145 13.3754C5.40512 14.4089 6.35862 15.224 7.48284 15.7188C8.60706 16.2136 9.85215 16.3662 11.0626 16.1575C12.273 15.9488 13.3951 15.388 14.2887 14.5453C14.4092 14.4314 14.57 14.3699 14.7358 14.3745C14.9016 14.3792 15.0587 14.4494 15.1727 14.5699C15.2866 14.6904 15.3481 14.8512 15.3435 15.017C15.3388 15.1828 15.2686 15.3399 15.1481 15.4539C13.7586 16.7717 11.9154 17.5043 10.0004 17.5H9.89729C8.66896 17.4832 7.46357 17.1649 6.38705 16.5731C5.31054 15.9813 4.39587 15.1342 3.72343 14.1061C3.05099 13.0781 2.64137 11.9006 2.53057 10.6772C2.41977 9.45371 2.61119 8.22179 3.088 7.08965C3.56481 5.95752 4.31241 4.95983 5.26509 4.18429C6.21778 3.40875 7.34638 2.87909 8.5517 2.64187C9.75703 2.40465 11.0022 2.46713 12.1777 2.82382C13.3532 3.18051 14.4231 3.82048 15.2934 4.6875L17.5004 6.70312V4.375C17.5004 4.20924 17.5663 4.05027 17.6835 3.93306C17.8007 3.81585 17.9597 3.75 18.1254 3.75C18.2912 3.75 18.4501 3.81585 18.5674 3.93306C18.6846 4.05027 18.7504 4.20924 18.7504 4.375Z" fill="black"/>
</svg>
