<svg width="20" height="20" viewBox="0 0 20 20" fill="none" xmlns="http://www.w3.org/2000/svg">
<path d="M17.5 10C17.5002 11.9718 16.7239 13.8643 15.3391 15.268C13.9543 16.6717 12.0724 17.4735 10.1008 17.5H10C8.08456 17.5048 6.24085 16.7718 4.85156 15.4531C4.7919 15.3967 4.74394 15.3291 4.71042 15.2541C4.67689 15.1792 4.65846 15.0983 4.65618 15.0162C4.65389 14.9341 4.6678 14.8524 4.6971 14.7757C4.7264 14.699 4.77053 14.6288 4.82695 14.5691C4.88338 14.5095 4.95101 14.4615 5.02597 14.428C5.10093 14.3945 5.18176 14.376 5.26385 14.3738C5.34593 14.3715 5.42767 14.3854 5.50438 14.4147C5.58109 14.444 5.65128 14.4881 5.71094 14.5445C6.60453 15.3873 7.72663 15.948 8.93705 16.1567C10.1475 16.3654 11.3926 16.2128 12.5168 15.718C13.641 15.2232 14.5945 14.4081 15.2582 13.3746C15.9218 12.341 16.2663 11.1348 16.2484 9.90668C16.2305 8.67852 15.8512 7.48285 15.1577 6.46904C14.4642 5.45523 13.4874 4.66822 12.3493 4.20633C11.2112 3.74445 9.96216 3.62816 8.75832 3.87199C7.55447 4.11583 6.44917 4.70898 5.58047 5.57735C5.57409 5.58425 5.5673 5.59077 5.56016 5.59688L3.48359 7.5H5.625C5.79076 7.5 5.94973 7.56585 6.06694 7.68306C6.18415 7.80027 6.25 7.95924 6.25 8.125C6.25 8.29076 6.18415 8.44974 6.06694 8.56695C5.94973 8.68416 5.79076 8.75 5.625 8.75H1.875C1.70924 8.75 1.55027 8.68416 1.43306 8.56695C1.31585 8.44974 1.25 8.29076 1.25 8.125V4.375C1.25 4.20924 1.31585 4.05027 1.43306 3.93306C1.55027 3.81585 1.70924 3.75 1.875 3.75C2.04076 3.75 2.19973 3.81585 2.31694 3.93306C2.43415 4.05027 2.5 4.20924 2.5 4.375V6.70313L4.70703 4.6875C5.75702 3.6416 7.09333 2.93021 8.54729 2.64315C10.0012 2.35609 11.5077 2.50623 12.8764 3.0746C14.2451 3.64298 15.4147 4.60412 16.2376 5.83668C17.0605 7.06925 17.4998 8.51798 17.5 10Z" fill="black"/>
</svg>
