<svg width="16" height="16" viewBox="0 0 16 16" fill="none" xmlns="http://www.w3.org/2000/svg">
<path d="M10.5 2.53649V2.00024C10.5 1.60242 10.342 1.22089 10.0607 0.939584C9.77936 0.658279 9.39782 0.500244 9 0.500244H7C6.60218 0.500244 6.22064 0.658279 5.93934 0.939584C5.65803 1.22089 5.5 1.60242 5.5 2.00024V2.53649C4.66755 2.65783 3.90649 3.07447 3.35573 3.71036C2.80498 4.34626 2.50125 5.159 2.5 6.00024V13.5002C2.5 13.7655 2.60536 14.0198 2.79289 14.2073C2.98043 14.3949 3.23478 14.5002 3.5 14.5002H12.5C12.7652 14.5002 13.0196 14.3949 13.2071 14.2073C13.3946 14.0198 13.5 13.7655 13.5 13.5002V6.00024C13.4987 5.159 13.195 4.34626 12.6443 3.71036C12.0935 3.07447 11.3324 2.65783 10.5 2.53649ZM7 1.50024H9C9.13261 1.50024 9.25979 1.55292 9.35355 1.64669C9.44732 1.74046 9.5 1.86764 9.5 2.00024V2.50024H6.5V2.00024C6.5 1.86764 6.55268 1.74046 6.64645 1.64669C6.74021 1.55292 6.86739 1.50024 7 1.50024ZM10.5 10.0002H5.5V9.50024C5.5 9.36764 5.55268 9.24046 5.64645 9.14669C5.74021 9.05292 5.86739 9.00024 6 9.00024H10C10.1326 9.00024 10.2598 9.05292 10.3536 9.14669C10.4473 9.24046 10.5 9.36764 10.5 9.50024V10.0002ZM5.5 11.0002H8.5V11.5002C8.5 11.6329 8.55268 11.76 8.64645 11.8538C8.74021 11.9476 8.86739 12.0002 9 12.0002C9.13261 12.0002 9.25979 11.9476 9.35355 11.8538C9.44732 11.76 9.5 11.6329 9.5 11.5002V11.0002H10.5V13.5002H5.5V11.0002ZM12.5 13.5002H11.5V9.50024C11.5 9.10242 11.342 8.72089 11.0607 8.43958C10.7794 8.15828 10.3978 8.00024 10 8.00024H6C5.60217 8.00024 5.22064 8.15828 4.93934 8.43958C4.65804 8.72089 4.5 9.10242 4.5 9.50024V13.5002H3.5V6.00024C3.5 5.3372 3.76339 4.70132 4.23223 4.23248C4.70107 3.76364 5.33696 3.50024 6 3.50024H10C10.663 3.50024 11.2989 3.76364 11.7678 4.23248C12.2366 4.70132 12.5 5.3372 12.5 6.00024V13.5002ZM9.5 5.50024C9.5 5.63285 9.44732 5.76003 9.35355 5.8538C9.25979 5.94757 9.13261 6.00024 9 6.00024H7C6.86739 6.00024 6.74021 5.94757 6.64645 5.8538C6.55268 5.76003 6.5 5.63285 6.5 5.50024C6.5 5.36764 6.55268 5.24046 6.64645 5.14669C6.74021 5.05292 6.86739 5.00024 7 5.00024H9C9.13261 5.00024 9.25979 5.05292 9.35355 5.14669C9.44732 5.24046 9.5 5.36764 9.5 5.50024Z" fill="black" fill-opacity="0.76"/>
</svg>
