<svg width="5" height="8" viewBox="0 0 5 8" fill="none" xmlns="http://www.w3.org/2000/svg">
<path d="M0.183129 0.975954L3.49117 4L0.183129 7.02404C0.0658733 7.13126 1.58764e-07 7.27667 1.52136e-07 7.4283C1.45508e-07 7.57992 0.0658733 7.72534 0.183129 7.83255C0.300385 7.93977 0.459418 8 0.625243 8C0.791067 8 0.950101 7.93977 1.06736 7.83255L4.81673 4.40425C4.87483 4.35119 4.92092 4.28817 4.95237 4.21881C4.98381 4.14944 5 4.07509 5 4C5 3.92491 4.98381 3.85056 4.95237 3.78119C4.92092 3.71183 4.87483 3.64881 4.81673 3.59575L1.06736 0.167447C0.950101 0.0602321 0.791068 -1.86967e-07 0.625243 -1.91227e-07C0.459418 -1.95486e-07 0.300386 0.0602326 0.18313 0.167447C0.0658746 0.274662 4.58475e-07 0.420076 4.51847e-07 0.571701C4.4522e-07 0.723325 0.0658736 0.86874 0.183129 0.975954Z" fill="black"/>
</svg>
