<svg width="11" height="10" viewBox="0 0 11 10" fill="none" xmlns="http://www.w3.org/2000/svg">
<path d="M0.123886 5.29847L3.92076 9.09534C3.99992 9.1745 4.10729 9.21898 4.21924 9.21898C4.33119 9.21898 4.43855 9.1745 4.51771 9.09534C4.59688 9.01618 4.64135 8.90882 4.64135 8.79687C4.64135 8.68492 4.59688 8.57755 4.51771 8.49839L1.44066 5.42186H9.70361C9.8155 5.42186 9.92281 5.37742 10.0019 5.2983C10.081 5.21918 10.1255 5.11188 10.1255 4.99999C10.1255 4.8881 10.081 4.7808 10.0019 4.70168C9.92281 4.62256 9.8155 4.57812 9.70361 4.57812H1.44066L4.51771 1.50159C4.59688 1.42243 4.64135 1.31507 4.64135 1.20312C4.64135 1.09116 4.59688 0.9838 4.51771 0.904639C4.43855 0.825478 4.33119 0.781006 4.21924 0.781006C4.10729 0.781006 3.99992 0.825478 3.92076 0.904639L0.123886 4.70151C0.0846624 4.74069 0.053545 4.78722 0.0323143 4.83844C0.0110836 4.88965 0.000156403 4.94455 0.000156403 4.99999C0.000156403 5.05543 0.0110836 5.11033 0.0323143 5.16154C0.053545 5.21276 0.0846624 5.25929 0.123886 5.29847Z" fill="black"/>
</svg>
