<svg width="17" height="18" viewBox="0 0 17 18" fill="none" xmlns="http://www.w3.org/2000/svg">
<path d="M8.66659 2.22949C7.32744 2.22949 6.01837 2.62659 4.90491 3.37058C3.79146 4.11457 2.92362 5.17203 2.41115 6.40924C1.89869 7.64645 1.7646 9.00784 2.02585 10.3212C2.28711 11.6347 2.93197 12.8411 3.87889 13.788C4.8258 14.7349 6.03225 15.3798 7.34566 15.6411C8.65908 15.9023 10.0205 15.7682 11.2577 15.2558C12.4949 14.7433 13.5523 13.8755 14.2963 12.762C15.0403 11.6485 15.4374 10.3395 15.4374 9.00033C15.4355 7.20517 14.7216 5.48408 13.4522 4.21472C12.1828 2.94535 10.4617 2.23139 8.66659 2.22949ZM8.66659 14.7295C7.53347 14.7295 6.42579 14.3935 5.48363 13.764C4.54148 13.1344 3.80716 12.2397 3.37353 11.1928C2.9399 10.1459 2.82644 8.99397 3.04751 7.88262C3.26857 6.77127 3.81422 5.75043 4.61546 4.94919C5.41669 4.14795 6.43753 3.6023 7.54888 3.38124C8.66023 3.16018 9.81218 3.27364 10.859 3.70727C11.9059 4.14089 12.8007 4.87521 13.4302 5.81737C14.0597 6.75953 14.3958 7.8672 14.3958 9.00033C14.394 10.5193 13.7899 11.9755 12.7158 13.0496C11.6418 14.1236 10.1855 14.7278 8.66659 14.7295ZM11.1184 7.06934C11.1668 7.11773 11.2052 7.17517 11.2314 7.2384C11.2576 7.30163 11.271 7.36939 11.271 7.43783C11.271 7.50626 11.2576 7.57403 11.2314 7.63725C11.2052 7.70048 11.1668 7.75792 11.1184 7.80631C11.07 7.85471 11.0126 7.89309 10.9493 7.91928C10.8861 7.94547 10.8184 7.95895 10.7499 7.95895C10.6815 7.95895 10.6137 7.94547 10.5505 7.91928C10.4873 7.89309 10.4298 7.85471 10.3814 7.80631L8.66659 6.09082L6.95174 7.80631C6.85401 7.90404 6.72147 7.95895 6.58325 7.95895C6.44504 7.95895 6.31249 7.90404 6.21477 7.80631C6.11704 7.70859 6.06213 7.57604 6.06213 7.43783C6.06213 7.29961 6.11704 7.16707 6.21477 7.06934L8.2981 4.986C8.34647 4.93758 8.40391 4.89916 8.46714 4.87295C8.53037 4.84674 8.59814 4.83325 8.66659 4.83325C8.73503 4.83325 8.80281 4.84674 8.86604 4.87295C8.92926 4.89916 8.98671 4.93758 9.03508 4.986L11.1184 7.06934ZM11.1184 10.1943C11.1668 10.2427 11.2053 10.3001 11.2315 10.3634C11.2577 10.4266 11.2712 10.4944 11.2712 10.5628C11.2712 10.6313 11.2577 10.699 11.2315 10.7623C11.2053 10.8255 11.1668 10.8829 11.1184 10.9313L9.03508 13.0146C8.98671 13.0631 8.92926 13.1015 8.86604 13.1277C8.80281 13.1539 8.73503 13.1674 8.66659 13.1674C8.59814 13.1674 8.53037 13.1539 8.46714 13.1277C8.40391 13.1015 8.34647 13.0631 8.2981 13.0146L6.21477 10.9313C6.11704 10.8336 6.06213 10.701 6.06213 10.5628C6.06213 10.4246 6.11704 10.2921 6.21477 10.1943C6.31249 10.0966 6.44504 10.0417 6.58325 10.0417C6.72147 10.0417 6.85401 10.0966 6.95174 10.1943L8.66659 11.9098L10.3814 10.1943C10.4298 10.1459 10.4872 10.1075 10.5505 10.0813C10.6137 10.0551 10.6815 10.0416 10.7499 10.0416C10.8184 10.0416 10.8861 10.0551 10.9494 10.0813C11.0126 10.1075 11.07 10.1459 11.1184 10.1943Z" fill="black"/>
</svg>
