<svg width="19" height="20" viewBox="0 0 19 20" fill="none" xmlns="http://www.w3.org/2000/svg">
<path d="M13.4826 13.1424C13.5378 13.1975 13.5816 13.263 13.6115 13.3351C13.6414 13.4072 13.6567 13.4845 13.6567 13.5625C13.6567 13.6405 13.6414 13.7178 13.6115 13.7898C13.5816 13.8619 13.5378 13.9274 13.4826 13.9826L9.9201 17.5451C9.86496 17.6003 9.79948 17.6441 9.7274 17.6739C9.65532 17.7038 9.57805 17.7192 9.50002 17.7192C9.422 17.7192 9.34473 17.7038 9.27265 17.6739C9.20057 17.6441 9.13509 17.6003 9.07995 17.5451L5.51745 13.9826C5.40603 13.8711 5.34344 13.72 5.34344 13.5625C5.34344 13.4049 5.40603 13.2538 5.51745 13.1424C5.62886 13.031 5.77997 12.9684 5.93752 12.9684C6.09508 12.9684 6.24619 13.031 6.3576 13.1424L9.50002 16.2856L12.6424 13.1424C12.6976 13.0872 12.7631 13.0434 12.8352 13.0135C12.9072 12.9836 12.9845 12.9683 13.0625 12.9683C13.1406 12.9683 13.2178 12.9836 13.2899 13.0135C13.362 13.0434 13.4275 13.0872 13.4826 13.1424ZM6.3576 6.85756L9.50002 3.71439L12.6424 6.85756C12.7539 6.96897 12.905 7.03156 13.0625 7.03156C13.2201 7.03156 13.3712 6.96897 13.4826 6.85756C13.594 6.74615 13.6566 6.59504 13.6566 6.43748C13.6566 6.27992 13.594 6.12881 13.4826 6.0174L9.9201 2.4549C9.86496 2.3997 9.79948 2.3559 9.7274 2.32602C9.65532 2.29614 9.57805 2.28076 9.50002 2.28076C9.422 2.28076 9.34473 2.29614 9.27265 2.32602C9.20057 2.3559 9.13509 2.3997 9.07995 2.4549L5.51745 6.0174C5.40603 6.12881 5.34344 6.27992 5.34344 6.43748C5.34344 6.59504 5.40604 6.74615 5.51745 6.85756C5.62886 6.96897 5.77997 7.03156 5.93752 7.03156C6.09508 7.03156 6.24619 6.96897 6.3576 6.85756Z" fill="black"/>
</svg>
