<svg width="14" height="14" viewBox="0 0 14 14" fill="none" xmlns="http://www.w3.org/2000/svg">
<path d="M3.29053 8.83506C3.23824 8.78282 3.19676 8.7208 3.16846 8.65252C3.14015 8.58425 3.12559 8.51106 3.12559 8.43715C3.12559 8.36325 3.14015 8.29006 3.16846 8.22179C3.19676 8.15351 3.23824 8.09148 3.29053 8.03925L6.66496 4.66483C6.71719 4.61254 6.77922 4.57105 6.84749 4.54275C6.91577 4.51445 6.98895 4.49988 7.06286 4.49988C7.13677 4.49988 7.20995 4.51445 7.27823 4.54275C7.3465 4.57105 7.40853 4.61254 7.46076 4.66483L10.8352 8.03925C10.9407 8.14478 11 8.28791 11 8.43715C11 8.5864 10.9407 8.72953 10.8352 8.83506C10.7297 8.94059 10.5865 8.99987 10.4373 8.99987C10.288 8.99987 10.1449 8.94059 10.0394 8.83506L7.06286 5.85783L4.08633 8.83506C4.0341 8.88735 3.97207 8.92883 3.9038 8.95713C3.83553 8.98543 3.76234 9 3.68843 9C3.61452 9 3.54134 8.98543 3.47307 8.95713C3.40479 8.92883 3.34276 8.88735 3.29053 8.83506Z" fill="white"/>
</svg>
