<svg width="17" height="18" viewBox="0 0 17 18" fill="none" xmlns="http://www.w3.org/2000/svg">
<path d="M12.1602 9.36845L6.95187 14.5768C6.90348 14.6252 6.84603 14.6636 6.7828 14.6898C6.71958 14.7159 6.65181 14.7294 6.58338 14.7294C6.51494 14.7294 6.44718 14.7159 6.38395 14.6898C6.32073 14.6636 6.26328 14.6252 6.21489 14.5768C6.1665 14.5284 6.12811 14.4709 6.10192 14.4077C6.07573 14.3445 6.06226 14.2767 6.06226 14.2083C6.06226 14.1399 6.07573 14.0721 6.10192 14.0089C6.12811 13.9456 6.1665 13.8882 6.21489 13.8398L11.0554 8.99996L6.21489 4.16012C6.11716 4.06239 6.06226 3.92984 6.06226 3.79163C6.06226 3.65342 6.11716 3.52087 6.21489 3.42314C6.31262 3.32541 6.44517 3.27051 6.58338 3.27051C6.72159 3.27051 6.85414 3.32541 6.95187 3.42314L12.1602 8.63147C12.2086 8.67985 12.247 8.73729 12.2733 8.80052C12.2995 8.86374 12.313 8.93152 12.313 8.99996C12.313 9.06841 12.2995 9.13618 12.2733 9.19941C12.247 9.26264 12.2086 9.32008 12.1602 9.36845Z" fill="black"/>
</svg>
