<svg width="18" height="19" viewBox="0 0 18 19" fill="none" xmlns="http://www.w3.org/2000/svg">
<path d="M12.2105 7.41453C12.2628 7.46677 12.3043 7.52881 12.3326 7.5971C12.3609 7.66538 12.3754 7.73858 12.3754 7.8125C12.3754 7.88642 12.3609 7.95962 12.3326 8.0279C12.3043 8.09619 12.2628 8.15823 12.2105 8.21047L8.27297 12.148C8.22073 12.2003 8.15869 12.2418 8.09041 12.2701C8.02212 12.2984 7.94892 12.3129 7.875 12.3129C7.80108 12.3129 7.72789 12.2984 7.6596 12.2701C7.59131 12.2418 7.52928 12.2003 7.47703 12.148L5.78953 10.4605C5.68399 10.3549 5.62469 10.2118 5.62469 10.0625C5.62469 9.91323 5.68399 9.77008 5.78953 9.66453C5.89508 9.55898 6.03824 9.49969 6.1875 9.49969C6.33677 9.49969 6.47992 9.55898 6.58547 9.66453L7.875 10.9548L11.4145 7.41453C11.4668 7.36223 11.5288 7.32074 11.5971 7.29244C11.6654 7.26413 11.7386 7.24956 11.8125 7.24956C11.8864 7.24956 11.9596 7.26413 12.0279 7.29244C12.0962 7.32074 12.1582 7.36223 12.2105 7.41453ZM16.3125 9.5C16.3125 10.9463 15.8836 12.3601 15.0801 13.5626C14.2766 14.7651 13.1346 15.7024 11.7984 16.2559C10.4622 16.8093 8.99189 16.9541 7.57341 16.672C6.15492 16.3898 4.85196 15.6934 3.82928 14.6707C2.80661 13.648 2.11017 12.3451 1.82801 10.9266C1.54586 9.50811 1.69067 8.03781 2.24413 6.70163C2.7976 5.36544 3.73486 4.22339 4.9374 3.41988C6.13993 2.61637 7.55373 2.1875 9 2.1875C10.9388 2.18955 12.7975 2.96063 14.1685 4.33154C15.5394 5.70246 16.3105 7.56123 16.3125 9.5ZM15.1875 9.5C15.1875 8.27623 14.8246 7.07994 14.1447 6.06241C13.4648 5.04488 12.4985 4.25181 11.3679 3.7835C10.2372 3.31518 8.99314 3.19265 7.79288 3.43139C6.59262 3.67014 5.49012 4.25944 4.62478 5.12478C3.75944 5.99011 3.17014 7.09262 2.93139 8.29288C2.69265 9.49314 2.81518 10.7372 3.2835 11.8679C3.75182 12.9985 4.54488 13.9648 5.56241 14.6447C6.57994 15.3246 7.77623 15.6875 9 15.6875C10.6405 15.6856 12.2132 15.0331 13.3732 13.8732C14.5331 12.7132 15.1856 11.1405 15.1875 9.5Z" fill="white"/>
</svg>
