<svg width="20" height="20" viewBox="0 0 20 20" fill="none" xmlns="http://www.w3.org/2000/svg">
<path d="M18.125 10C18.125 12.1549 17.269 14.2215 15.7452 15.7453C14.2215 17.269 12.1549 18.125 10 18.125C7.84512 18.125 5.77849 17.269 4.25476 15.7453C2.73102 14.2215 1.875 12.1549 1.875 10C1.875 6.79689 3.73516 3.87814 6.61406 2.55704C6.68865 2.52278 6.76925 2.50354 6.85128 2.50042C6.9333 2.4973 7.01513 2.51038 7.0921 2.53889C7.16908 2.5674 7.23968 2.61079 7.29988 2.66658C7.36008 2.72238 7.4087 2.78949 7.44297 2.86407C7.47724 2.93866 7.49648 3.01927 7.49959 3.10129C7.50271 3.18331 7.48964 3.26514 7.46113 3.34212C7.43261 3.41909 7.38922 3.48969 7.33343 3.54989C7.27763 3.61009 7.21052 3.65871 7.13594 3.69298C4.69922 4.81173 3.125 7.28673 3.125 10C3.125 11.8234 3.84933 13.5721 5.13864 14.8614C6.42795 16.1507 8.17664 16.875 10 16.875C11.8234 16.875 13.572 16.1507 14.8614 14.8614C16.1507 13.5721 16.875 11.8234 16.875 10C16.875 7.28673 15.3008 4.81173 12.8641 3.69298C12.7134 3.62378 12.5965 3.49757 12.5389 3.34212C12.4813 3.18667 12.4878 3.01471 12.557 2.86407C12.6262 2.71344 12.7524 2.59647 12.9079 2.53889C13.0633 2.48131 13.2353 2.48784 13.3859 2.55704C16.2648 3.87814 18.125 6.79689 18.125 10Z" fill="white"/>
</svg>
