<?xml version="1.0" encoding="UTF-8"?>
<svg xmlns="http://www.w3.org/2000/svg" width="21" height="20" viewBox="0 0 21 20" fill="none">
  <g id="Coins">
    <path id="Vector" d="M15.0415 6.99766V6.5625C15.0415 4.60312 12.086 3.125 8.1665 3.125C4.24697 3.125 1.2915 4.60312 1.2915 6.5625V9.6875C1.2915 11.3195 3.34229 12.6164 6.2915 13.0047V13.4375C6.2915 15.3969 9.24697 16.875 13.1665 16.875C17.086 16.875 20.0415 15.3969 20.0415 13.4375V10.3125C20.0415 8.69531 18.0556 7.39687 15.0415 6.99766ZM18.7915 10.3125C18.7915 11.3453 16.386 12.5 13.1665 12.5C12.8751 12.5 12.586 12.4898 12.3009 12.4711C13.986 11.857 15.0415 10.8594 15.0415 9.6875V8.26094C17.3751 8.60859 18.7915 9.55234 18.7915 10.3125ZM6.2915 11.7383V9.87969C6.91321 9.96069 7.53955 10.0009 8.1665 10C8.79346 10.0009 9.4198 9.96069 10.0415 9.87969V11.7383C9.42073 11.83 8.79402 11.8757 8.1665 11.875C7.53899 11.8757 6.91228 11.83 6.2915 11.7383ZM13.7915 8.58828V9.6875C13.7915 10.343 12.822 11.0469 11.2915 11.4742V9.64844C12.3001 9.40391 13.154 9.03984 13.7915 8.58828ZM8.1665 4.375C11.386 4.375 13.7915 5.52969 13.7915 6.5625C13.7915 7.59531 11.386 8.75 8.1665 8.75C4.94697 8.75 2.5415 7.59531 2.5415 6.5625C2.5415 5.52969 4.94697 4.375 8.1665 4.375ZM2.5415 9.6875V8.58828C3.179 9.03984 4.03291 9.40391 5.0415 9.64844V11.4742C3.51104 11.0469 2.5415 10.343 2.5415 9.6875ZM7.5415 13.4375V13.1117C7.74697 13.1195 7.95479 13.125 8.1665 13.125C8.46963 13.125 8.76572 13.1148 9.05635 13.0977C9.37921 13.2132 9.70807 13.3113 10.0415 13.3914V15.2242C8.51103 14.7969 7.5415 14.093 7.5415 13.4375ZM11.2915 15.4883V13.625C11.913 13.7085 12.5394 13.7503 13.1665 13.75C13.7935 13.7509 14.4198 13.7107 15.0415 13.6297V15.4883C13.7982 15.6706 12.5349 15.6706 11.2915 15.4883ZM16.2915 15.2242V13.3984C17.3001 13.1539 18.154 12.7898 18.7915 12.3383V13.4375C18.7915 14.093 17.822 14.7969 16.2915 15.2242Z" fill="black"></path>
  </g>
</svg>
