<svg width="16" height="16" viewBox="0 0 16 16" fill="none" xmlns="http://www.w3.org/2000/svg">
<path d="M15 13H14V6.00001C14 5.73479 13.8946 5.48044 13.7071 5.2929C13.5196 5.10537 13.2652 5.00001 13 5.00001H9V2.00001C9.00012 1.81892 8.95106 1.64121 8.85807 1.48582C8.76507 1.33044 8.63163 1.20322 8.47199 1.11775C8.31234 1.03228 8.13248 0.991768 7.95161 1.00053C7.77073 1.00929 7.59564 1.06701 7.445 1.16751L2.445 4.50001C2.30784 4.59152 2.19543 4.71553 2.11779 4.861C2.04015 5.00646 1.99969 5.16887 2 5.33376V13H1C0.867392 13 0.740215 13.0527 0.646447 13.1465C0.552678 13.2402 0.5 13.3674 0.5 13.5C0.5 13.6326 0.552678 13.7598 0.646447 13.8536C0.740215 13.9473 0.867392 14 1 14H15C15.1326 14 15.2598 13.9473 15.3536 13.8536C15.4473 13.7598 15.5 13.6326 15.5 13.5C15.5 13.3674 15.4473 13.2402 15.3536 13.1465C15.2598 13.0527 15.1326 13 15 13ZM13 6.00001V13H9V6.00001H13ZM3 5.33376L8 2.00001V13H3V5.33376ZM7 7.00001V8.00001C7 8.13262 6.94732 8.25979 6.85355 8.35356C6.75978 8.44733 6.63261 8.50001 6.5 8.50001C6.36739 8.50001 6.24021 8.44733 6.14645 8.35356C6.05268 8.25979 6 8.13262 6 8.00001V7.00001C6 6.8674 6.05268 6.74022 6.14645 6.64646C6.24021 6.55269 6.36739 6.50001 6.5 6.50001C6.63261 6.50001 6.75978 6.55269 6.85355 6.64646C6.94732 6.74022 7 6.8674 7 7.00001ZM5 7.00001V8.00001C5 8.13262 4.94732 8.25979 4.85355 8.35356C4.75978 8.44733 4.63261 8.50001 4.5 8.50001C4.36739 8.50001 4.24021 8.44733 4.14645 8.35356C4.05268 8.25979 4 8.13262 4 8.00001V7.00001C4 6.8674 4.05268 6.74022 4.14645 6.64646C4.24021 6.55269 4.36739 6.50001 4.5 6.50001C4.63261 6.50001 4.75978 6.55269 4.85355 6.64646C4.94732 6.74022 5 6.8674 5 7.00001ZM5 10.5V11.5C5 11.6326 4.94732 11.7598 4.85355 11.8536C4.75978 11.9473 4.63261 12 4.5 12C4.36739 12 4.24021 11.9473 4.14645 11.8536C4.05268 11.7598 4 11.6326 4 11.5V10.5C4 10.3674 4.05268 10.2402 4.14645 10.1465C4.24021 10.0527 4.36739 10 4.5 10C4.63261 10 4.75978 10.0527 4.85355 10.1465C4.94732 10.2402 5 10.3674 5 10.5ZM7 10.5V11.5C7 11.6326 6.94732 11.7598 6.85355 11.8536C6.75978 11.9473 6.63261 12 6.5 12C6.36739 12 6.24021 11.9473 6.14645 11.8536C6.05268 11.7598 6 11.6326 6 11.5V10.5C6 10.3674 6.05268 10.2402 6.14645 10.1465C6.24021 10.0527 6.36739 10 6.5 10C6.63261 10 6.75978 10.0527 6.85355 10.1465C6.94732 10.2402 7 10.3674 7 10.5Z" fill="black" fill-opacity="0.76"/>
</svg>
