<svg width="16" height="16" viewBox="0 0 16 16" fill="none" xmlns="http://www.w3.org/2000/svg">
<path d="M8.59514 11.6475C8.68883 11.7413 8.74147 11.8684 8.74147 12.0009C8.74147 12.1335 8.68883 12.2606 8.59514 12.3544L7.97389 12.9794C7.31689 13.6359 6.42599 14.0046 5.49716 14.0044C4.56832 14.0041 3.67765 13.6348 3.02107 12.9778C2.3645 12.3208 1.9958 11.4299 1.99609 10.5011C1.99639 9.57225 2.36565 8.68157 3.02264 8.025L4.53014 6.5175C5.16119 5.88594 6.00974 5.51941 6.90215 5.49292C7.79456 5.46643 8.66336 5.78198 9.33076 6.375C9.38001 6.41866 9.42017 6.4716 9.44896 6.53078C9.47774 6.58997 9.49459 6.65425 9.49854 6.71994C9.50248 6.78564 9.49345 6.85147 9.47196 6.91368C9.45046 6.97589 9.41693 7.03325 9.37326 7.0825C9.3296 7.13174 9.27666 7.17191 9.21747 7.20069C9.15829 7.22948 9.09401 7.24633 9.02831 7.25028C8.96262 7.25422 8.89678 7.24519 8.83458 7.22369C8.77237 7.2022 8.71501 7.16866 8.66576 7.125C8.18908 6.70169 7.5687 6.47647 6.93147 6.49541C6.29425 6.51435 5.68833 6.776 5.23764 7.22687L3.73014 8.7325C3.2612 9.20143 2.99775 9.83745 2.99775 10.5006C2.99775 11.1638 3.2612 11.7998 3.73014 12.2687C4.19907 12.7377 4.83509 13.0011 5.49826 13.0011C6.16144 13.0011 6.79745 12.7377 7.26639 12.2687L7.88764 11.6475C7.93407 11.601 7.98922 11.5641 8.04992 11.539C8.11061 11.5138 8.17568 11.5009 8.24139 11.5009C8.30709 11.5009 8.37216 11.5138 8.43286 11.539C8.49356 11.5641 8.5487 11.601 8.59514 11.6475ZM12.9751 3.0225C12.318 2.36688 11.4277 1.99869 10.4995 1.99869C9.57129 1.99869 8.68097 2.36688 8.02389 3.0225L7.40264 3.64437C7.3089 3.73819 7.25627 3.86541 7.25633 3.99803C7.25639 4.13065 7.30913 4.25782 7.40295 4.35156C7.49677 4.4453 7.62398 4.49793 7.75661 4.49787C7.88923 4.49781 8.0164 4.44507 8.11014 4.35125L8.73139 3.73C9.20032 3.26106 9.83633 2.99762 10.4995 2.99762C11.1627 2.99762 11.7987 3.26106 12.2676 3.73C12.7366 4.19893 13 4.83495 13 5.49812C13 6.1613 12.7366 6.79731 12.2676 7.26625L10.7601 8.775C10.3092 9.2256 9.70314 9.48692 9.06592 9.50551C8.4287 9.5241 7.80845 9.29855 7.33201 8.875C7.28277 8.83133 7.2254 8.7978 7.16319 8.7763C7.10099 8.7548 7.03516 8.74577 6.96946 8.74972C6.83678 8.75769 6.7127 8.81804 6.62451 8.9175C6.58085 8.96674 6.54731 9.02411 6.52581 9.08631C6.50432 9.14852 6.49529 9.21435 6.49923 9.28005C6.5072 9.41273 6.56755 9.53681 6.66701 9.625C7.33426 10.2182 8.20297 10.5339 9.09537 10.5077C9.98778 10.4814 10.8364 10.1151 11.4676 9.48375L12.9751 7.97625C13.6311 7.31911 13.9996 6.42852 13.9996 5.5C13.9996 4.57147 13.6311 3.68089 12.9751 3.02375V3.0225Z" fill="black" fill-opacity="0.76"/>
</svg>
