<?xml version="1.0" encoding="UTF-8"?>
<svg xmlns="http://www.w3.org/2000/svg" width="21" height="20" viewBox="0 0 21 20" fill="none">
  <g id="LineSegments">
    <path id="Vector" d="M19.3101 2.60621C19.0779 2.37401 18.8023 2.18981 18.4989 2.06414C18.1956 1.93846 17.8704 1.87378 17.5421 1.87378C17.2137 1.87378 16.8886 1.93846 16.5852 2.06414C16.2819 2.18981 16.0063 2.37401 15.7741 2.60621C15.5419 2.83837 15.3577 3.11399 15.232 3.41734C15.1064 3.72069 15.0417 4.04583 15.0417 4.37418C15.0417 4.70254 15.1064 5.02767 15.232 5.33102C15.3577 5.63437 15.5419 5.91 15.7741 6.14215C15.7968 6.16481 15.821 6.18668 15.8444 6.20856L13.764 10.0726C13.1297 9.91794 12.4601 10.016 11.8968 10.3461L10.3202 8.7695C10.6304 8.24526 10.7385 7.62582 10.6242 7.02751C10.51 6.42921 10.1812 5.8932 9.69966 5.52016C9.21814 5.14712 8.61698 4.96271 8.0091 5.00158C7.40122 5.04044 6.82844 5.29989 6.39834 5.73121C6.16613 5.96337 5.98193 6.23899 5.85626 6.54234C5.73059 6.84569 5.66591 7.17083 5.66591 7.49918C5.66591 7.82754 5.73059 8.15267 5.85626 8.45602C5.98193 8.75937 6.16613 9.035 6.39834 9.26715C6.421 9.28981 6.44443 9.31168 6.46787 9.33356L4.3874 13.1984C3.9698 13.0956 3.53274 13.1023 3.11847 13.2178C2.7042 13.3333 2.32674 13.5537 2.02256 13.8578C1.67299 14.2074 1.43494 14.6529 1.33852 15.1378C1.24211 15.6228 1.29165 16.1254 1.48088 16.5822C1.67012 17.039 1.99055 17.4294 2.40166 17.7041C2.81277 17.9787 3.2961 18.1253 3.79053 18.1253C4.28496 18.1253 4.76828 17.9787 5.17939 17.7041C5.5905 17.4294 5.91094 17.039 6.10017 16.5822C6.28941 16.1254 6.33895 15.6228 6.24253 15.1378C6.14612 14.6529 5.90807 14.2074 5.5585 13.8578C5.53584 13.8351 5.51162 13.8132 5.48818 13.7914L7.56865 9.92731C7.76427 9.97522 7.96491 9.99961 8.16631 9.99996C8.61265 10.0005 9.05101 9.88155 9.43584 9.65543L11.0124 11.232C10.7751 11.6348 10.6554 12.0961 10.6671 12.5635C10.6788 13.0309 10.8213 13.4857 11.0784 13.8762C11.3356 14.2666 11.6971 14.5772 12.1219 14.7725C12.5466 14.9678 13.0177 15.0401 13.4815 14.9812C13.9453 14.9222 14.3833 14.7344 14.7457 14.439C15.1081 14.1436 15.3805 13.7525 15.5318 13.3102C15.6831 12.8678 15.7073 12.3918 15.6017 11.9364C15.4961 11.4809 15.2648 11.0642 14.9343 10.7336C14.9116 10.7109 14.8882 10.689 14.8647 10.6672L16.9452 6.80309C17.1403 6.85066 17.3405 6.87479 17.5413 6.87496C18.0357 6.87489 18.5189 6.72825 18.9299 6.45359C19.341 6.17893 19.6613 5.78858 19.8505 5.33188C20.0398 4.87517 20.0893 4.37262 19.993 3.88775C19.8967 3.40288 19.6587 2.95745 19.3093 2.60778L19.3101 2.60621ZM4.67412 16.5101C4.43957 16.7446 4.12149 16.8762 3.78986 16.8762C3.45823 16.8761 3.14021 16.7443 2.90576 16.5097C2.67132 16.2752 2.53965 15.9571 2.53972 15.6255C2.53979 15.2938 2.6716 14.9758 2.90615 14.7414C3.02229 14.6253 3.16016 14.5332 3.31188 14.4704C3.4636 14.4076 3.62621 14.3753 3.79041 14.3753C3.95462 14.3754 4.11721 14.4077 4.26891 14.4706C4.4206 14.5335 4.55843 14.6256 4.67451 14.7418C4.7906 14.8579 4.88267 14.9958 4.94548 15.1475C5.00829 15.2992 5.04059 15.4618 5.04056 15.626C5.04052 15.7902 5.00814 15.9528 4.94527 16.1045C4.8824 16.2562 4.79026 16.394 4.67412 16.5101ZM7.28193 8.38512C7.16583 8.26904 7.07373 8.13123 7.01089 7.97956C6.94806 7.82788 6.91572 7.66531 6.91572 7.50114C6.91572 7.33696 6.94806 7.17439 7.01089 7.02272C7.07373 6.87104 7.16583 6.73323 7.28193 6.61715C7.45676 6.44236 7.67949 6.32334 7.92196 6.27513C8.16443 6.22692 8.41575 6.2517 8.64414 6.34631C8.87253 6.44093 9.06773 6.60115 9.20507 6.8067C9.34241 7.01226 9.41572 7.25392 9.41572 7.50114C9.41572 7.74835 9.34241 7.99001 9.20507 8.19557C9.06773 8.40112 8.87253 8.56134 8.64414 8.65596C8.41575 8.75058 8.16443 8.77535 7.92196 8.72714C7.67949 8.67893 7.45676 8.55991 7.28193 8.38512ZM14.0507 13.3851C13.8162 13.6196 13.4983 13.7513 13.1667 13.7513C12.8351 13.7513 12.5172 13.6196 12.2827 13.3851C12.0483 13.1507 11.9166 12.8327 11.9166 12.5011C11.9166 12.1696 12.0483 11.8516 12.2827 11.6172C12.5172 11.3827 12.8351 11.251 13.1667 11.251C13.4983 11.251 13.8162 11.3827 14.0507 11.6172C14.2851 11.8516 14.4168 12.1696 14.4168 12.5011C14.4168 12.8327 14.2851 13.1507 14.0507 13.3851ZM18.4257 5.26012C18.1909 5.49446 17.8727 5.62595 17.541 5.62566C17.2093 5.62537 16.8913 5.49332 16.6569 5.25856C16.4226 5.0238 16.2911 4.70556 16.2914 4.37386C16.2917 4.04215 16.4237 3.72415 16.6585 3.48981C16.7746 3.37372 16.9125 3.28165 17.0642 3.21884C17.2159 3.15604 17.3785 3.12373 17.5428 3.12376C17.707 3.1238 17.8696 3.15618 18.0212 3.21905C18.1729 3.28193 18.3108 3.37406 18.4269 3.4902C18.5429 3.60634 18.635 3.7442 18.6978 3.89592C18.7606 4.04765 18.7929 4.21025 18.7929 4.37446C18.7929 4.53867 18.7605 4.70126 18.6976 4.85295C18.6347 5.00465 18.5426 5.14247 18.4265 5.25856L18.4257 5.26012Z" fill="black"></path>
  </g>
</svg>
