<?xml version="1.0" encoding="UTF-8"?>
<svg xmlns="http://www.w3.org/2000/svg" width="21" height="20" viewBox="0 0 21 20" fill="none">
  <g id="Headset">
    <path id="Vector" d="M16.1057 4.27031C15.358 3.51514 14.4687 2.91486 13.4888 2.50383C12.5088 2.09281 11.4574 1.87912 10.3947 1.875H10.333C8.17812 1.875 6.1115 2.73102 4.58777 4.25476C3.06403 5.77849 2.20801 7.84512 2.20801 10V14.375C2.20801 14.8723 2.40555 15.3492 2.75718 15.7008C3.10881 16.0525 3.58573 16.25 4.08301 16.25H5.33301C5.83029 16.25 6.3072 16.0525 6.65883 15.7008C7.01046 15.3492 7.20801 14.8723 7.20801 14.375V11.25C7.20801 10.7527 7.01046 10.2758 6.65883 9.92417C6.3072 9.57254 5.83029 9.375 5.33301 9.375H3.48613C3.60667 8.07182 4.09616 6.83 4.89725 5.79508C5.69833 4.76016 6.77782 3.97502 8.00918 3.53169C9.24054 3.08836 10.5728 3.0052 11.8497 3.29196C13.1266 3.57872 14.2954 4.22352 15.2189 5.15078C16.3478 6.28539 17.0421 7.78052 17.1807 9.375H15.333C14.8357 9.375 14.3588 9.57254 14.0072 9.92417C13.6556 10.2758 13.458 10.7527 13.458 11.25V14.375C13.458 14.8723 13.6556 15.3492 14.0072 15.7008C14.3588 16.0525 14.8357 16.25 15.333 16.25H17.208C17.208 16.7473 17.0105 17.2242 16.6588 17.5758C16.3072 17.9275 15.8303 18.125 15.333 18.125H10.958C10.7922 18.125 10.6333 18.1908 10.5161 18.3081C10.3989 18.4253 10.333 18.5842 10.333 18.75C10.333 18.9158 10.3989 19.0747 10.5161 19.1919C10.6333 19.3092 10.7922 19.375 10.958 19.375H15.333C16.1618 19.375 16.9567 19.0458 17.5427 18.4597C18.1288 17.8737 18.458 17.0788 18.458 16.25V10C18.4621 8.93717 18.2564 7.88398 17.8527 6.90077C17.4491 5.91757 16.8554 5.02368 16.1057 4.27031ZM5.33301 10.625C5.49877 10.625 5.65774 10.6908 5.77495 10.8081C5.89216 10.9253 5.95801 11.0842 5.95801 11.25V14.375C5.95801 14.5408 5.89216 14.6997 5.77495 14.8169C5.65774 14.9342 5.49877 15 5.33301 15H4.08301C3.91725 15 3.75828 14.9342 3.64107 14.8169C3.52386 14.6997 3.45801 14.5408 3.45801 14.375V10.625H5.33301ZM15.333 15C15.1672 15 15.0083 14.9342 14.8911 14.8169C14.7739 14.6997 14.708 14.5408 14.708 14.375V11.25C14.708 11.0842 14.7739 10.9253 14.8911 10.8081C15.0083 10.6908 15.1672 10.625 15.333 10.625H17.208V15H15.333Z" fill="black"></path>
  </g>
</svg>
