<svg width="14" height="18" viewBox="0 0 14 18" fill="none" xmlns="http://www.w3.org/2000/svg">
<path d="M13.1563 7.94443L1.9 1.0585C1.71022 0.942287 1.49287 0.878846 1.27037 0.874726C1.04788 0.870606 0.828324 0.925955 0.634375 1.03506C0.442273 1.14247 0.282247 1.2991 0.170753 1.48886C0.0592589 1.67862 0.000320983 1.89466 0 2.11475V15.8851C0.00144747 16.2152 0.133933 16.5313 0.368331 16.7638C0.60273 16.9962 0.919857 17.1261 1.25 17.1249C1.48043 17.1248 1.70639 17.0613 1.90313 16.9413L13.1563 10.0554C13.3371 9.94512 13.4866 9.7902 13.5904 9.6055C13.6941 9.4208 13.7486 9.21252 13.7486 9.00068C13.7486 8.78885 13.6941 8.58057 13.5904 8.39587C13.4866 8.21117 13.3371 8.05625 13.1563 7.946V7.94443ZM1.25 15.8702V2.1249L12.4867 8.9999L1.25 15.8702Z" fill="black"/>
</svg>
