<svg width="17" height="18" viewBox="0 0 17 18" fill="none" xmlns="http://www.w3.org/2000/svg">
<path d="M11.7916 9.00033C11.7916 9.13846 11.7367 9.27094 11.639 9.36861C11.5414 9.46629 11.4089 9.52116 11.2708 9.52116H6.06242C5.92429 9.52116 5.79181 9.46629 5.69414 9.36861C5.59646 9.27094 5.54159 9.13846 5.54159 9.00033C5.54159 8.86219 5.59646 8.72972 5.69414 8.63204C5.79181 8.53437 5.92429 8.47949 6.06242 8.47949H11.2708C11.4089 8.47949 11.5414 8.53437 11.639 8.63204C11.7367 8.72972 11.7916 8.86219 11.7916 9.00033ZM15.4374 9.00033C15.4374 10.3395 15.0403 11.6485 14.2963 12.762C13.5523 13.8755 12.4949 14.7433 11.2577 15.2558C10.0205 15.7682 8.65908 15.9023 7.34566 15.6411C6.03225 15.3798 4.8258 14.7349 3.87889 13.788C2.93197 12.8411 2.28711 11.6347 2.02585 10.3212C1.7646 9.00784 1.89869 7.64645 2.41115 6.40924C2.92362 5.17203 3.79146 4.11457 4.90491 3.37058C6.01837 2.62659 7.32744 2.22949 8.66659 2.22949C10.4617 2.23139 12.1828 2.94535 13.4522 4.21472C14.7216 5.48408 15.4355 7.20517 15.4374 9.00033ZM14.3958 9.00033C14.3958 7.8672 14.0597 6.75953 13.4302 5.81737C12.8007 4.87521 11.9059 4.14089 10.859 3.70727C9.81218 3.27364 8.66023 3.16018 7.54888 3.38124C6.43753 3.6023 5.41669 4.14795 4.61546 4.94919C3.81422 5.75043 3.26857 6.77127 3.04751 7.88262C2.82644 8.99397 2.9399 10.1459 3.37353 11.1928C3.80716 12.2397 4.54148 13.1344 5.48363 13.764C6.42579 14.3935 7.53347 14.7295 8.66659 14.7295C10.1855 14.7278 11.6418 14.1236 12.7158 13.0496C13.7899 11.9755 14.394 10.5193 14.3958 9.00033Z" fill="black"/>
</svg>
