<?xml version="1.0" encoding="UTF-8"?>
<svg xmlns="http://www.w3.org/2000/svg" width="28" height="28" viewBox="0 0 28 28" fill="none">
  <path d="M2.91714 10.7417L22.1584 3.60935L22.1759 3.60388C22.4856 3.49724 22.819 3.47967 23.1382 3.55316C23.4574 3.62665 23.7496 3.78825 23.9815 4.01959C24.2134 4.25092 24.3757 4.5427 24.45 4.86172C24.5243 5.18075 24.5075 5.51422 24.4017 5.82419C24.4003 5.83017 24.3985 5.83602 24.3962 5.84169L17.2584 25.0829C17.1412 25.426 16.9188 25.7234 16.6229 25.9329C16.327 26.1424 15.9726 26.2534 15.6101 26.25H15.5773C15.2076 26.2471 14.8486 26.1256 14.5532 25.9033C14.2578 25.681 14.0417 25.3696 13.9367 25.0151L11.3598 16.6414L2.98604 14.0645C2.63419 13.9562 2.32543 13.7398 2.10372 13.4459C1.882 13.152 1.7586 12.7957 1.75109 12.4276C1.74358 12.0595 1.85233 11.6985 2.06188 11.3958C2.27142 11.0931 2.57108 10.8642 2.91823 10.7417H2.91714ZM3.5001 12.3922L11.8739 14.969C12.1464 15.053 12.3944 15.2023 12.596 15.404C12.7977 15.6057 12.9471 15.8536 13.031 16.1262L15.6079 24.5L15.6145 24.4814L22.7501 5.24997L3.51979 12.3834L3.50229 12.39L3.5001 12.3922Z" fill="white"></path>
</svg>
