<?xml version="1.0" encoding="UTF-8"?>
<svg xmlns="http://www.w3.org/2000/svg" width="21" height="20" viewBox="0 0 21 20" fill="none">
  <g id="Person">
    <path id="Vector" d="M12.8332 3.125C12.8332 2.63055 12.6866 2.1472 12.4119 1.73608C12.1372 1.32495 11.7467 1.00452 11.2899 0.815302C10.8331 0.626083 10.3304 0.576575 9.84546 0.673038C9.3605 0.769501 8.91505 1.0076 8.56541 1.35723C8.21578 1.70687 7.97768 2.15232 7.88122 2.63728C7.78475 3.12223 7.83426 3.62489 8.02348 4.08171C8.2127 4.53853 8.53313 4.92897 8.94426 5.20368C9.35538 5.47838 9.83873 5.625 10.3332 5.625C10.9962 5.625 11.6321 5.36161 12.1009 4.89277C12.5698 4.42393 12.8332 3.78804 12.8332 3.125ZM10.3332 4.375C10.086 4.375 9.84428 4.30169 9.63872 4.16434C9.43316 4.02699 9.27294 3.83176 9.17833 3.60336C9.08372 3.37495 9.05897 3.12361 9.1072 2.88114C9.15543 2.63866 9.27448 2.41593 9.4493 2.24112C9.62411 2.0663 9.84684 1.94725 10.0893 1.89902C10.3318 1.85079 10.5831 1.87554 10.8115 1.97015C11.0399 2.06476 11.2352 2.22498 11.3725 2.43054C11.5099 2.6361 11.5832 2.87777 11.5832 3.125C11.5832 3.45652 11.4515 3.77446 11.2171 4.00889C10.9826 4.24331 10.6647 4.375 10.3332 4.375ZM17.391 10.4727L13.8621 6.4711C13.6275 6.20514 13.3389 5.99214 13.0156 5.84626C12.6924 5.70039 12.3418 5.62496 11.9871 5.625H8.67928C8.32461 5.62496 7.974 5.70039 7.65072 5.84626C7.32745 5.99214 7.03891 6.20514 6.80428 6.4711L3.27537 10.4727C2.98879 10.7658 2.82887 11.1597 2.83009 11.5697C2.8313 11.9796 2.99356 12.3726 3.28188 12.664C3.5702 12.9554 3.96148 13.1218 4.37136 13.1274C4.78125 13.1329 5.1769 12.9772 5.47303 12.6938L6.74646 11.6719L5.45428 16.5844C5.28313 16.962 5.269 17.3921 5.415 17.7802C5.561 18.1682 5.85517 18.4824 6.23279 18.6535C6.61041 18.8247 7.04056 18.8388 7.4286 18.6928C7.81664 18.5468 8.13078 18.2526 8.30193 17.875L10.3332 14.3695L12.3644 17.875C12.5432 18.24 12.8572 18.5209 13.2397 18.6582C13.6222 18.7955 14.0431 18.7784 14.4132 18.6105C14.7833 18.4426 15.0734 18.1371 15.2219 17.7588C15.3705 17.3805 15.3659 16.9593 15.209 16.5844L13.9199 11.6719L15.1933 12.6938C15.4895 12.9772 15.8851 13.1329 16.295 13.1274C16.7049 13.1218 17.0962 12.9554 17.3845 12.664C17.6728 12.3726 17.8351 11.9796 17.8363 11.5697C17.8375 11.1597 17.6776 10.7658 17.391 10.4727ZM16.4918 11.7828C16.4628 11.8119 16.4283 11.8349 16.3904 11.8506C16.3524 11.8664 16.3117 11.8745 16.2707 11.8745C16.2296 11.8745 16.1889 11.8664 16.151 11.8506C16.1131 11.8349 16.0786 11.8119 16.0496 11.7828C16.0332 11.7672 16.0168 11.7516 15.9988 11.7375L13.2238 9.5125C13.1214 9.43075 12.9959 9.38326 12.865 9.37674C12.7341 9.37022 12.6045 9.405 12.4945 9.47617C12.3844 9.54733 12.2996 9.65128 12.2518 9.77332C12.2041 9.89536 12.1959 10.0293 12.2285 10.1563L14.016 16.9531C14.0252 16.9894 14.0378 17.0247 14.0535 17.0586C14.0715 17.0959 14.082 17.1364 14.0842 17.1777C14.0865 17.2191 14.0805 17.2605 14.0666 17.2995C14.0527 17.3385 14.0312 17.3744 14.0033 17.405C13.9754 17.4356 13.9418 17.4604 13.9042 17.4779C13.8667 17.4954 13.826 17.5053 13.7847 17.5069C13.7433 17.5086 13.702 17.502 13.6632 17.4876C13.6244 17.4731 13.5888 17.4511 13.5586 17.4228C13.5283 17.3945 13.504 17.3604 13.4871 17.3227C13.4794 17.3058 13.4708 17.2893 13.4613 17.2734L10.8738 12.8125C10.8189 12.7178 10.74 12.6392 10.6451 12.5845C10.5502 12.5299 10.4427 12.5011 10.3332 12.5011C10.2237 12.5011 10.1161 12.5299 10.0212 12.5845C9.92636 12.6392 9.8475 12.7178 9.79256 12.8125L7.20818 17.2695C7.19866 17.2854 7.19005 17.3019 7.1824 17.3188C7.16505 17.356 7.14052 17.3894 7.11022 17.4172C7.07992 17.4449 7.04445 17.4664 7.00584 17.4805C6.94772 17.5018 6.88459 17.5053 6.82445 17.4907C6.76431 17.4761 6.70986 17.4439 6.66802 17.3983C6.62618 17.3527 6.59882 17.2957 6.58942 17.2345C6.58002 17.1733 6.589 17.1108 6.61521 17.0547C6.63096 17.0208 6.64351 16.9855 6.65271 16.9492L8.43787 10.1563C8.47043 10.0293 8.46227 9.89536 8.41454 9.77332C8.36681 9.65128 8.28193 9.54733 8.1719 9.47617C8.06186 9.405 7.93225 9.37022 7.80137 9.37674C7.67049 9.38326 7.54497 9.43075 7.44256 9.5125L4.66756 11.7375C4.64959 11.7516 4.63318 11.7672 4.61678 11.7828C4.58807 11.8131 4.5536 11.8373 4.51539 11.854C4.47719 11.8708 4.43601 11.8797 4.39431 11.8802C4.3526 11.8808 4.3112 11.873 4.27255 11.8573C4.2339 11.8417 4.19878 11.8184 4.16926 11.7889C4.13974 11.7595 4.11641 11.7244 4.10067 11.6858C4.08492 11.6471 4.07706 11.6058 4.07755 11.564C4.07805 11.5223 4.08689 11.4812 4.10356 11.4429C4.12022 11.4047 4.14437 11.3702 4.17459 11.3414C4.18396 11.332 4.19256 11.3227 4.20115 11.3125L7.74178 7.29766C7.85913 7.16475 8.00341 7.05833 8.16505 6.98546C8.32668 6.91258 8.50197 6.87493 8.67928 6.875H11.9871C12.1644 6.87493 12.3397 6.91258 12.5013 6.98546C12.663 7.05833 12.8072 7.16475 12.9246 7.29766L16.4652 11.3125C16.4738 11.3227 16.4824 11.332 16.4918 11.3414C16.5502 11.4 16.583 11.4794 16.583 11.5621C16.583 11.6449 16.5502 11.7242 16.4918 11.7828Z" fill="black"></path>
  </g>
</svg>
