<svg width="16" height="17" viewBox="0 0 16 17" fill="none" xmlns="http://www.w3.org/2000/svg">
<path d="M13.8981 10.8449L10.9538 9.52553L10.9456 9.52178C10.7928 9.4564 10.626 9.43017 10.4605 9.44545C10.2949 9.46072 10.1358 9.51703 9.99751 9.60928C9.98122 9.62004 9.96557 9.63172 9.95063 9.64428L8.42938 10.9412C7.46563 10.473 6.47063 9.48553 6.00251 8.53428L7.30126 6.98991C7.31376 6.97428 7.32563 6.95866 7.33688 6.94178C7.42715 6.80385 7.48192 6.64573 7.49631 6.48152C7.5107 6.3173 7.48428 6.15207 7.41938 6.00053V5.99303L6.09626 3.04366C6.01047 2.8457 5.86296 2.68079 5.67575 2.57356C5.48854 2.46632 5.27166 2.42251 5.05751 2.44866C4.21061 2.5601 3.43324 2.97601 2.87059 3.61872C2.30794 4.26142 1.99847 5.08696 2.00001 5.94116C2.00001 10.9037 6.03751 14.9412 11 14.9412C11.8542 14.9427 12.6797 14.6332 13.3224 14.0706C13.9651 13.5079 14.3811 12.7306 14.4925 11.8837C14.5187 11.6696 14.475 11.4528 14.3679 11.2656C14.2607 11.0783 14.096 10.9308 13.8981 10.8449ZM11 13.9412C8.87898 13.9388 6.8455 13.0952 5.34571 11.5955C3.84592 10.0957 3.00232 8.06218 3.00001 5.94116C2.99765 5.33084 3.21754 4.74053 3.61859 4.28047C4.01964 3.82042 4.57444 3.52207 5.17938 3.44116C5.17913 3.44365 5.17913 3.44616 5.17938 3.44866L6.49188 6.38616L5.20001 7.93241C5.18689 7.9475 5.17498 7.96359 5.16438 7.98053C5.07033 8.12486 5.01515 8.29103 5.0042 8.46295C4.99325 8.63486 5.0269 8.80669 5.10188 8.96178C5.66813 10.1199 6.83501 11.278 8.00563 11.8437C8.16186 11.9179 8.33468 11.9504 8.50722 11.9379C8.67976 11.9254 8.8461 11.8684 8.99001 11.7724C9.00605 11.7616 9.02149 11.7499 9.03626 11.7374L10.5556 10.4412L13.4931 11.7568C13.4931 11.7568 13.4981 11.7568 13.5 11.7568C13.4201 12.3626 13.1222 12.9185 12.662 13.3205C12.2019 13.7226 11.611 13.9432 11 13.9412Z" fill="black"/>
</svg>
