<svg width="28" height="28" viewBox="0 0 28 28" fill="none" xmlns="http://www.w3.org/2000/svg">
<g id="Play">
<path id="Vector" d="M25.4187 12.5223L9.66 2.88204C9.39431 2.71934 9.09001 2.63053 8.77852 2.62476C8.46703 2.61899 8.15965 2.69648 7.88813 2.84922C7.61918 2.99959 7.39515 3.21889 7.23905 3.48455C7.08296 3.75021 7.00045 4.05266 7 4.36079V23.6392C7.00203 24.1014 7.18751 24.5439 7.51566 24.8694C7.84382 25.1949 8.2878 25.3767 8.75 25.375C9.0726 25.3749 9.38895 25.2859 9.66437 25.118L25.4187 15.4777C25.672 15.3233 25.8813 15.1064 26.0265 14.8478C26.1717 14.5893 26.248 14.2977 26.248 14.0011C26.248 13.7045 26.1717 13.4129 26.0265 13.1544C25.8813 12.8958 25.672 12.6789 25.4187 12.5245V12.5223ZM8.75 23.6184V4.375L24.4814 14L8.75 23.6184Z" fill="white"/>
</g>
</svg>
