<svg width="16" height="17" viewBox="0 0 16 17" fill="none" xmlns="http://www.w3.org/2000/svg">
<path d="M14.4324 14.1912C13.4805 12.5455 12.0137 11.3655 10.3018 10.8062C11.1486 10.3021 11.8065 9.53395 12.1744 8.61977C12.5424 7.7056 12.6001 6.6959 12.3387 5.74575C12.0773 4.7956 11.5112 3.95752 10.7274 3.36023C9.94359 2.76294 8.98538 2.43945 7.99993 2.43945C7.01447 2.43945 6.05626 2.76294 5.27244 3.36023C4.48863 3.95752 3.92255 4.7956 3.66114 5.74575C3.39973 6.6959 3.45744 7.7056 3.82542 8.61977C4.19339 9.53395 4.85128 10.3021 5.69805 10.8062C3.98618 11.3649 2.5193 12.5449 1.56743 14.1912C1.53252 14.2481 1.50936 14.3114 1.49933 14.3774C1.4893 14.4434 1.49259 14.5108 1.509 14.5755C1.52542 14.6402 1.55463 14.701 1.59492 14.7542C1.63521 14.8075 1.68575 14.8521 1.74357 14.8855C1.80138 14.9189 1.8653 14.9404 1.93155 14.9487C1.99781 14.957 2.06505 14.9519 2.12931 14.9338C2.19358 14.9157 2.25356 14.8849 2.30573 14.8432C2.3579 14.8015 2.40119 14.7498 2.43305 14.6912C3.61055 12.6562 5.6918 11.4412 7.99993 11.4412C10.3081 11.4412 12.3893 12.6562 13.5668 14.6912C13.5987 14.7498 13.642 14.8015 13.6941 14.8432C13.7463 14.8849 13.8063 14.9157 13.8705 14.9338C13.9348 14.9519 14.002 14.957 14.0683 14.9487C14.1345 14.9404 14.1985 14.9189 14.2563 14.8855C14.3141 14.8521 14.3646 14.8075 14.4049 14.7542C14.4452 14.701 14.4744 14.6402 14.4908 14.5755C14.5073 14.5108 14.5106 14.4434 14.5005 14.3774C14.4905 14.3114 14.4673 14.2481 14.4324 14.1912ZM4.49993 6.94115C4.49993 6.24892 4.7052 5.57223 5.08978 4.99666C5.47437 4.42109 6.02099 3.97248 6.66053 3.70757C7.30007 3.44267 8.00381 3.37336 8.68274 3.5084C9.36168 3.64345 9.98531 3.9768 10.4748 4.46628C10.9643 4.95576 11.2976 5.5794 11.4327 6.25834C11.5677 6.93727 11.4984 7.641 11.2335 8.28055C10.9686 8.92009 10.52 9.46671 9.94442 9.8513C9.36885 10.2359 8.69216 10.4412 7.99993 10.4412C7.07197 10.4402 6.18231 10.0711 5.52615 9.41493C4.86999 8.75877 4.50092 7.86911 4.49993 6.94115Z" fill="black"/>
</svg>
